<mxfile host="app.diagrams.net" modified="2021-10-19T06:49:38.228Z" agent="5.0 (Macintosh; Intel Mac OS X 10_15_7) AppleWebKit/537.36 (KHTML, like Gecko) Chrome/94.0.4606.81 Safari/537.36" etag="z_mLzc0KIeaig7VMhIwW" version="15.5.5" type="github">
  <diagram id="jw5Gknr87ESiY9hvoRZv" name="Page-1">
    <mxGraphModel dx="1186" dy="504" grid="1" gridSize="10" guides="1" tooltips="1" connect="1" arrows="1" fold="1" page="1" pageScale="1" pageWidth="1654" pageHeight="1169" math="0" shadow="0">
      <root>
        <mxCell id="0" />
        <mxCell id="1" parent="0" />
        <mxCell id="yLMO9j1-ENURAFqj986H-1" value="Tasking: (Input int a, b)&lt;br&gt;1. Determine a &amp;lt;= b, if false -&amp;gt; null&lt;br&gt;2. Determine 1&amp;lt;=a&amp;lt;=1000 AND 1&amp;lt;=b&amp;lt;=1000, if false -&amp;gt; null&lt;br&gt;3. Printing function&lt;br&gt;3.1 For loop print a*a -&amp;gt; a*b&lt;br&gt;3.2 For loop print a-b lines" style="text;html=1;strokeColor=none;fillColor=none;align=left;verticalAlign=middle;whiteSpace=wrap;rounded=0;" vertex="1" parent="1">
          <mxGeometry x="40" y="90" width="330" height="30" as="geometry" />
        </mxCell>
        <mxCell id="yLMO9j1-ENURAFqj986H-2" value="printMultiplicationTable" style="rounded=1;whiteSpace=wrap;html=1;align=center;" vertex="1" parent="1">
          <mxGeometry x="380" y="90" width="160" height="330" as="geometry" />
        </mxCell>
        <mxCell id="yLMO9j1-ENURAFqj986H-3" value="isEndNumberLarger" style="rounded=1;whiteSpace=wrap;html=1;align=center;" vertex="1" parent="1">
          <mxGeometry x="720" y="80" width="120" height="60" as="geometry" />
        </mxCell>
        <mxCell id="yLMO9j1-ENURAFqj986H-4" value="isWithinRange" style="rounded=1;whiteSpace=wrap;html=1;align=center;" vertex="1" parent="1">
          <mxGeometry x="720" y="210" width="120" height="60" as="geometry" />
        </mxCell>
        <mxCell id="yLMO9j1-ENURAFqj986H-5" value="printTable" style="rounded=1;whiteSpace=wrap;html=1;align=center;" vertex="1" parent="1">
          <mxGeometry x="720" y="340" width="120" height="60" as="geometry" />
        </mxCell>
        <mxCell id="yLMO9j1-ENURAFqj986H-7" value="int a, int b" style="text;html=1;strokeColor=none;fillColor=none;align=center;verticalAlign=middle;whiteSpace=wrap;rounded=0;" vertex="1" parent="1">
          <mxGeometry x="230" y="230" width="60" height="30" as="geometry" />
        </mxCell>
        <mxCell id="yLMO9j1-ENURAFqj986H-8" value="" style="endArrow=classic;html=1;rounded=0;entryX=-0.006;entryY=0.482;entryDx=0;entryDy=0;entryPerimeter=0;" edge="1" parent="1" target="yLMO9j1-ENURAFqj986H-2">
          <mxGeometry width="50" height="50" relative="1" as="geometry">
            <mxPoint x="290" y="250" as="sourcePoint" />
            <mxPoint x="340" y="200" as="targetPoint" />
          </mxGeometry>
        </mxCell>
        <mxCell id="yLMO9j1-ENURAFqj986H-9" value="int a, int b" style="text;html=1;strokeColor=none;fillColor=none;align=center;verticalAlign=middle;whiteSpace=wrap;rounded=0;" vertex="1" parent="1">
          <mxGeometry x="600" y="80" width="60" height="30" as="geometry" />
        </mxCell>
        <mxCell id="yLMO9j1-ENURAFqj986H-11" value="" style="endArrow=classic;html=1;rounded=0;entryX=0;entryY=0.5;entryDx=0;entryDy=0;" edge="1" parent="1" target="yLMO9j1-ENURAFqj986H-3">
          <mxGeometry width="50" height="50" relative="1" as="geometry">
            <mxPoint x="540" y="110" as="sourcePoint" />
            <mxPoint x="590" y="60" as="targetPoint" />
          </mxGeometry>
        </mxCell>
        <mxCell id="yLMO9j1-ENURAFqj986H-17" value="int a, int b" style="text;html=1;strokeColor=none;fillColor=none;align=center;verticalAlign=middle;whiteSpace=wrap;rounded=0;" vertex="1" parent="1">
          <mxGeometry x="600" y="210" width="60" height="30" as="geometry" />
        </mxCell>
        <mxCell id="yLMO9j1-ENURAFqj986H-18" value="" style="endArrow=classic;html=1;rounded=0;entryX=0;entryY=0.5;entryDx=0;entryDy=0;" edge="1" parent="1">
          <mxGeometry width="50" height="50" relative="1" as="geometry">
            <mxPoint x="540" y="240" as="sourcePoint" />
            <mxPoint x="720" y="240" as="targetPoint" />
          </mxGeometry>
        </mxCell>
        <mxCell id="yLMO9j1-ENURAFqj986H-19" value="int a, int b" style="text;html=1;strokeColor=none;fillColor=none;align=center;verticalAlign=middle;whiteSpace=wrap;rounded=0;" vertex="1" parent="1">
          <mxGeometry x="600" y="330" width="60" height="30" as="geometry" />
        </mxCell>
        <mxCell id="yLMO9j1-ENURAFqj986H-20" value="" style="endArrow=classic;html=1;rounded=0;entryX=0;entryY=0.5;entryDx=0;entryDy=0;" edge="1" parent="1">
          <mxGeometry width="50" height="50" relative="1" as="geometry">
            <mxPoint x="540" y="360" as="sourcePoint" />
            <mxPoint x="720" y="360" as="targetPoint" />
          </mxGeometry>
        </mxCell>
        <mxCell id="yLMO9j1-ENURAFqj986H-21" value="" style="endArrow=classic;html=1;rounded=0;" edge="1" parent="1">
          <mxGeometry width="50" height="50" relative="1" as="geometry">
            <mxPoint x="380" y="305" as="sourcePoint" />
            <mxPoint x="280" y="305" as="targetPoint" />
          </mxGeometry>
        </mxCell>
        <mxCell id="yLMO9j1-ENURAFqj986H-22" value="String table" style="text;html=1;strokeColor=none;fillColor=none;align=center;verticalAlign=middle;whiteSpace=wrap;rounded=0;" vertex="1" parent="1">
          <mxGeometry x="200" y="290" width="80" height="30" as="geometry" />
        </mxCell>
        <mxCell id="yLMO9j1-ENURAFqj986H-23" value="" style="endArrow=classic;html=1;rounded=0;entryX=1;entryY=0.112;entryDx=0;entryDy=0;entryPerimeter=0;exitX=0;exitY=0.75;exitDx=0;exitDy=0;" edge="1" parent="1" source="yLMO9j1-ENURAFqj986H-3" target="yLMO9j1-ENURAFqj986H-2">
          <mxGeometry width="50" height="50" relative="1" as="geometry">
            <mxPoint x="670" y="125" as="sourcePoint" />
            <mxPoint x="720" y="155" as="targetPoint" />
          </mxGeometry>
        </mxCell>
        <mxCell id="yLMO9j1-ENURAFqj986H-24" value="Bool" style="text;html=1;strokeColor=none;fillColor=none;align=center;verticalAlign=middle;whiteSpace=wrap;rounded=0;" vertex="1" parent="1">
          <mxGeometry x="600" y="125" width="60" height="30" as="geometry" />
        </mxCell>
        <mxCell id="yLMO9j1-ENURAFqj986H-25" value="Bool" style="text;html=1;strokeColor=none;fillColor=none;align=center;verticalAlign=middle;whiteSpace=wrap;rounded=0;" vertex="1" parent="1">
          <mxGeometry x="600" y="255" width="60" height="30" as="geometry" />
        </mxCell>
        <mxCell id="yLMO9j1-ENURAFqj986H-28" value="" style="endArrow=classic;html=1;rounded=0;entryX=1;entryY=0.112;entryDx=0;entryDy=0;entryPerimeter=0;exitX=0;exitY=0.75;exitDx=0;exitDy=0;" edge="1" parent="1">
          <mxGeometry width="50" height="50" relative="1" as="geometry">
            <mxPoint x="720" y="253.04000000000002" as="sourcePoint" />
            <mxPoint x="540" y="255.00000000000006" as="targetPoint" />
          </mxGeometry>
        </mxCell>
        <mxCell id="yLMO9j1-ENURAFqj986H-29" value="" style="endArrow=classic;html=1;rounded=0;entryX=1;entryY=0.112;entryDx=0;entryDy=0;entryPerimeter=0;exitX=0;exitY=0.75;exitDx=0;exitDy=0;" edge="1" parent="1">
          <mxGeometry width="50" height="50" relative="1" as="geometry">
            <mxPoint x="720" y="369.02" as="sourcePoint" />
            <mxPoint x="540" y="370.98" as="targetPoint" />
          </mxGeometry>
        </mxCell>
        <mxCell id="yLMO9j1-ENURAFqj986H-31" value="String table" style="text;html=1;strokeColor=none;fillColor=none;align=center;verticalAlign=middle;whiteSpace=wrap;rounded=0;" vertex="1" parent="1">
          <mxGeometry x="595" y="370" width="70" height="30" as="geometry" />
        </mxCell>
        <mxCell id="yLMO9j1-ENURAFqj986H-34" value="" style="endArrow=classic;html=1;rounded=0;" edge="1" parent="1" target="yLMO9j1-ENURAFqj986H-35">
          <mxGeometry width="50" height="50" relative="1" as="geometry">
            <mxPoint x="380" y="350" as="sourcePoint" />
            <mxPoint x="280" y="350" as="targetPoint" />
          </mxGeometry>
        </mxCell>
        <mxCell id="yLMO9j1-ENURAFqj986H-35" value="String null" style="text;html=1;strokeColor=none;fillColor=none;align=center;verticalAlign=middle;whiteSpace=wrap;rounded=0;" vertex="1" parent="1">
          <mxGeometry x="210" y="340" width="70" height="30" as="geometry" />
        </mxCell>
      </root>
    </mxGraphModel>
  </diagram>
</mxfile>
